Coordinates
version=1
nRows=9
nColumns=63
inDegrees=yes

Units are S.I. units (second, meters, Newtons, ...)
If the header above contains a line with 'inDegrees', this indicates whether rotational values are in degrees (yes) or radians (no).

endheader
time	pelvis_tilt	pelvis_list	pelvis_rotation	pelvis_tx	pelvis_ty	pelvis_tz	hip_flexion_r	hip_adduction_r	hip_rotation_r	knee_angle_r	knee_angle_r_beta	ankle_angle_r	subtalar_angle_r	mtp_angle_r	hip_flexion_l	hip_adduction_l	hip_rotation_l	knee_angle_l	knee_angle_l_beta	ankle_angle_l	subtalar_angle_l	mtp_angle_l	L5_S1_Flex_Ext	L5_S1_Lat_Bending	L5_S1_axial_rotation	L4_L5_Flex_Ext	L4_L5_Lat_Bending	L4_L5_axial_rotation	L3_L4_Flex_Ext	L3_L4_Lat_Bending	L3_L4_axial_rotation	L2_L3_Flex_Ext	L2_L3_Lat_Bending	L2_L3_axial_rotation	L1_L2_Flex_Ext	L1_L2_Lat_Bending	L1_L2_axial_rotation	L1_T12_Flex_Ext	L1_T12_Lat_Bending	L1_T12_axial_rotation	Abs_r3	Abs_r2	Abs_r1	Abs_t1	Abs_t2	neck_flexion	neck_bending	neck_rotation	arm_flex_r	arm_add_r	arm_rot_r	elbow_flex_r	pro_sup_r	wrist_flex_r	wrist_dev_r	arm_flex_l	arm_add_l	arm_rot_l	elbow_flex_l	pro_sup_l	wrist_flex_l	wrist_dev_l
      3.48333333	      0.98269509	     -9.66840972	    113.31668070	      0.18692129	      0.36422061	      0.63819574	     -5.97204125	      0.83329323	    -12.53454584	      5.36816390	      0.09369213	     25.82350714	     -5.26563792	      0.00000000	     -2.57131825	     -1.29140721	      7.27361332	      3.73075526	      0.06511396	     30.37742722	     -0.37426854	      0.00000000	     -0.03062903	     -0.28364439	     -1.13787156	     -0.05688117	     -0.37724704	     -1.20898853	     -0.05032044	     -0.68965297	     -1.20898853	     -0.03500592	     -0.68965297	     -0.99563762	     -0.02844212	     -0.57840764	     -0.92452064	     -0.01750143	     -0.43936516	     -0.85340367	     -0.21878011	     -3.20864208	     -6.32850026	      0.00000000	      0.00000000	     11.57212171	      3.54647923	    -16.35287643	     -1.43095455	    -24.63468769	     34.40610955	    142.70597601	     72.92940229	     32.71864242	      8.55525090	      8.46316916	     -8.54848776	    175.15354373	      0.32159449	     27.52747622	    -27.75681627	      2.21406623
      3.50000000	      1.09427885	     -9.85197483	    113.36615593	      0.18699519	      0.36455398	      0.63873057	     -5.55531717	      0.82436309	    -12.89798444	      5.66746673	      0.09891595	     25.57238611	     -5.39074976	      0.00000000	     -2.30653416	     -1.32546365	      7.30552850	      3.77656950	      0.06591357	     30.12784304	     -0.41348698	      0.00000000	     -0.03013221	     -0.28116715	     -1.16913946	     -0.05595852	     -0.37395231	     -1.24221068	     -0.04950420	     -0.68362982	     -1.24221068	     -0.03443810	     -0.68362982	     -1.02299703	     -0.02798077	     -0.57335606	     -0.94992581	     -0.01721754	     -0.43552792	     -0.87685460	     -0.21523134	     -3.18061908	     -6.50240296	      0.00000000	      0.00000000	     12.86049242	      4.67853911	    -17.65751322	     -1.41764284	    -24.54351044	     34.70003265	    142.59104761	     72.33263553	     31.37196097	      9.23986643	      7.95877284	     -8.76445433	    174.95093788	      0.33503659	     27.67035606	    -27.33660041	      2.25529249
      3.51666667	      1.23838336	     -9.94661639	    113.50435354	      0.18669723	      0.36444838	      0.63946064	     -5.19166597	      0.79064305	    -14.47464435	      6.12188794	      0.10684710	     25.91746512	     -3.83977488	      0.00000000	     -2.05944794	     -1.40031179	      7.88826368	      3.92118622	      0.06843761	     30.17415450	     -0.87259031	      0.00000000	     -0.02884953	     -0.25748410	     -1.23155171	     -0.05357646	     -0.34245385	     -1.30852369	     -0.04739689	     -0.62604684	     -1.30852369	     -0.03297213	     -0.62604684	     -1.07760775	     -0.02678967	     -0.52506157	     -1.00063577	     -0.01648462	     -0.39884287	     -0.92366378	     -0.20606930	     -2.91271162	     -6.84952116	      0.00000000	      0.00000000	     13.86806374	      5.24232606	    -18.60915000	     -1.14126504	    -24.71073574	     35.74990745	    143.12815641	     67.38009735	     26.57239953	     14.71487465	      7.35320334	     -8.93013606	    172.90193194	      0.35601944	     25.50626765	    -26.65398828	     -0.15096437
      3.53333333	      1.33114764	    -10.06630170	    113.56743545	      0.18658441	      0.36418441	      0.64023776	     -4.84410027	      0.73071493	    -15.31370538	      6.49208966	      0.11330834	     26.21845319	     -3.26086418	      0.00000000	     -1.83231442	     -1.41625598	      8.04413867	      4.02465032	      0.07024340	     30.22894281	     -0.97401622	      0.00000000	     -0.03135096	     -0.24373949	     -1.26153884	     -0.05822186	     -0.32417352	     -1.34038501	     -0.05150648	     -0.59262819	     -1.34038501	     -0.03583101	     -0.59262819	     -1.10384648	     -0.02911250	     -0.49703356	     -1.02500030	     -0.01791394	     -0.37755247	     -0.94615413	     -0.22393674	     -2.75722982	     -7.01630054	      0.00000000	      0.00000000	     15.22233433	      6.32334241	    -19.70097350	     -0.88452392	    -24.80500608	     36.54183372	    143.40485822	     66.24633936	     22.47026390	     16.96284218	      6.92086416	     -9.05421442	    171.25386554	      0.37322455	     22.41717783	    -25.23082291	     -2.73660919
      3.55000000	      1.38085028	    -10.20558062	    113.71642020	      0.18640694	      0.36377093	      0.64125268	     -4.49938666	      0.59858816	    -16.47259468	      6.86775651	      0.11986496	     26.83383087	     -2.19248584	      0.00000000	     -1.56562961	     -1.38808716	      8.25056666	      4.15251869	      0.07247512	     30.29160873	     -0.90912433	      0.00000000	     -0.04197786	     -0.23526092	     -1.30167486	     -0.07795708	     -0.31289703	     -1.38302954	     -0.06896543	     -0.57201341	     -1.38302954	     -0.04797650	     -0.57201341	     -1.13896550	     -0.03898064	     -0.47974407	     -1.05761083	     -0.02398615	     -0.36441917	     -0.97625615	     -0.29984366	     -2.66131862	     -7.23952508	      0.00000000	      0.00000000	     16.66789278	      7.68273852	    -20.70767795	     -0.56170489	    -24.74172852	     37.16558506	    143.54434712	     65.60927797	     19.30872768	     18.95227914	      6.64932657	     -9.14044917	    170.64568929	      0.37905274	     18.99222175	    -23.55194559	     -4.92510544
      3.56666667	      1.37531735	    -10.44562262	    113.99641473	      0.18606105	      0.36315567	      0.64234885	     -4.11381643	      0.36803701	    -17.80891197	      7.21098563	      0.12585544	     27.64357413	     -0.88951977	      0.00000000	     -1.16933744	     -1.26319374	      8.44486792	      4.37306995	      0.07632447	     30.42239401	     -0.60288326	      0.00000000	     -0.05061369	     -0.23865279	     -1.33683316	     -0.09399469	     -0.31740821	     -1.42038524	     -0.08315323	     -0.58026039	     -1.42038524	     -0.05784639	     -0.58026039	     -1.16972902	     -0.04699987	     -0.48666076	     -1.08617695	     -0.02892066	     -0.36967317	     -1.00262487	     -0.36152854	     -2.69968805	     -7.43506501	      0.00000000	      0.00000000	     18.00282146	      9.14316465	    -21.97647743	     -0.51246784	    -24.53979341	     37.57778406	    143.64871750	     66.53660592	     16.69583881	     20.03407138	      6.61034258	     -9.16544914	    171.01987433	      0.37521354	     16.74376806	    -21.87067156	     -6.03607781
      3.58333333	      1.37699899	    -10.70057161	    114.17810643	      0.18576964	      0.36246817	      0.64327332	     -3.76429551	      0.19364459	    -18.06354489	      7.39940052	      0.12914390	     28.20270188	     -0.71535591	      0.00000000	     -0.81272122	     -1.13109978	      8.67519202	      4.52079345	      0.07890273	     30.47064859	     -0.40153442	      0.00000000	     -0.06383529	     -0.24366936	     -1.37504104	     -0.11854852	     -0.32408025	     -1.46098111	     -0.10487500	     -0.59245769	     -1.46098111	     -0.07295736	     -0.59245769	     -1.20316091	     -0.05927745	     -0.49689056	     -1.11722085	     -0.03647549	     -0.37744384	     -1.03128078	     -0.45596912	     -2.75643655	     -7.64756577	      0.00000000	      0.00000000	     18.95621531	     10.94010539	    -23.00447330	     -0.28931031	    -24.24779789	     37.93082238	    143.35793440	     67.25863342	     16.10266742	     20.27268247	      6.58728670	     -9.12284030	    171.16631128	      0.36287495	     16.50144479	    -21.35524302	     -6.09150560
      3.60000000	      1.34850990	    -10.98274360	    114.57417568	      0.18510661	      0.36157464	      0.64410129	     -3.40290905	     -0.17279493	    -20.55110899	      7.81764318	      0.13644361	     29.43220346	      2.30445730	      0.00000000	     -0.33261039	     -0.97083953	      8.33299304	      4.89012098	      0.08534871	     30.81454051	      0.78842902	      0.00000000	     -0.07543354	     -0.24513741	     -1.41816863	     -0.14008763	     -0.32603275	     -1.50680417	     -0.12392977	     -0.59602709	     -1.50680417	     -0.08621300	     -0.59602709	     -1.24089756	     -0.07004759	     -0.49988420	     -1.15226202	     -0.04310273	     -0.37971784	     -1.06362648	     -0.53881426	     -2.77304338	     -7.88742850	      0.00000000	      0.00000000	     19.27070568	     12.19662271	    -23.85971109	     -0.41405213	    -24.16763351	     38.65468023	    143.63310344	     73.65569250	     12.47200841	     18.88459309	      6.75841028	     -9.05206805	    172.12684683	      0.34430599	     14.75380253	    -20.38639754	     -6.43816220
      3.61666667	      1.43230433	    -11.09256137	    114.58495962	      0.18508124	      0.36076314	      0.64432851	     -3.27262156	     -0.15503936	    -20.45477017	      7.80638214	      0.13624707	     29.86421062	      2.40876512	      0.00000000	     -0.17443901	     -1.01017614	      8.58965514	      4.94775235	      0.08635457	     30.95168880	      0.97718667	      0.00000000	     -0.09463436	     -0.22551731	     -1.41859893	     -0.17574547	     -0.29993803	     -1.50726136	     -0.15547479	     -0.54832280	     -1.50726136	     -0.10815761	     -0.54832280	     -1.24127406	     -0.08787747	     -0.45987491	     -1.15261163	     -0.05407407	     -0.34932632	     -1.06394920	     -0.67596376	     -2.55109697	     -7.88982167	      0.00000000	      0.00000000	     18.76071210	     13.05616954	    -24.35274891	     -0.21737754	    -23.78094042	     39.05334030	    143.16621024	     74.00968788	     12.48692010	     19.06965572	      6.92154724	     -8.92258288	    172.15194158	      0.33259565	     14.75713068	    -20.36241064	     -6.43906582
